<svg id="Слой_7" data-name="Слой 7" xmlns="http://www.w3.org/2000/svg" viewBox="0 0 64 64"><defs><style>.cls-1{fill:gray;}.cls-2{fill:#666;}.cls-3{fill:#4d4d4d;}.cls-4{fill:#333;}.cls-5{fill:#534741;}.cls-6{fill:#736357;}.cls-7{fill:#998675;}</style></defs><title>logoP</title><polygon class="cls-1" points="21.17 16.16 17.73 10.12 46.26 10.07 42.79 16.08 21.17 16.16"/><polygon class="cls-2" points="53.59 34.78 42.79 16.08 46.26 10.07 60.53 34.78 53.59 34.78"/><polygon class="cls-3" points="48.65 43.34 53.59 34.78 60.53 34.78 52.12 49.36 48.65 43.34"/><polygon class="cls-4" points="48.65 43.34 24.95 43.4 23.45 49.38 52.12 49.36 48.65 43.34"/><polygon class="cls-5" points="18.37 36 26.92 36 22.04 55.25 17.74 47.95 19.27 42 16.76 42 18.37 36"/><polygon class="cls-6" points="22.04 55.09 16.85 58.15 3.47 35 10.35 35 22.04 55.09"/><polygon class="cls-7" points="10.35 35 3.53 35 17.73 10.12 21.17 16.16 10.35 35"/></svg>